<?xml version="1.0" standalone="no"?>
<!DOCTYPE svg PUBLIC "-//W3C//DTD SVG 20010904//EN"
 "http://www.w3.org/TR/2001/REC-SVG-20010904/DTD/svg10.dtd">
<svg version="1.0" xmlns="http://www.w3.org/2000/svg"
 width="200.000000pt" height="200.000000pt" viewBox="0 0 200.000000 200.000000"
 preserveAspectRatio="xMidYMid meet">
<metadata>
Created by potrace 1.15, written by Peter Selinger 2001-2017
</metadata>
<g transform="translate(0.000000,200.000000) scale(0.100000,-0.100000)"
fill="#000000" stroke="none">
<path d="M450 1305 l0 -175 -180 0 -180 0 0 -200 0 -200 90 0 c83 0 90 1 90
20 0 18 -7 20 -70 20 l-70 0 0 160 0 160 160 0 160 0 0 -76 c0 -66 2 -75 18
-72 14 3 18 16 20 76 l3 72 174 0 175 0 0 195 0 195 -195 0 -195 0 0 -175z
m358 -17 l3 -158 -161 0 -160 0 0 160 0 161 158 -3 157 -3 3 -157z"/>
<path d="M730 963 c0 -5 10 -13 23 -18 22 -10 22 -14 25 -202 2 -184 3 -193
22 -193 19 0 20 9 22 173 l3 172 100 -172 c97 -166 101 -172 133 -173 l32 0 0
210 c0 202 -1 210 -20 210 -19 0 -20 -8 -22 -167 l-3 -168 -96 165 -97 165
-61 3 c-34 2 -61 -1 -61 -5z"/>
<path d="M1260 964 c0 -4 8 -12 17 -19 16 -12 12 -28 -51 -199 -38 -103 -66
-190 -63 -193 15 -15 37 11 54 64 l20 58 83 0 83 0 22 -60 c20 -54 26 -60 54
-63 17 -2 31 0 31 5 0 4 -33 98 -74 208 l-73 200 -52 3 c-28 2 -51 0 -51 -4z"/>
<path d="M1500 960 c0 -5 7 -10 15 -10 23 0 29 -15 157 -372 8 -22 16 -28 38
-28 17 0 31 7 35 18 15 37 145 394 145 398 0 2 -8 4 -19 4 -15 0 -29 -30 -76
-165 -32 -91 -61 -165 -65 -165 -4 0 -34 74 -66 165 l-59 165 -52 0 c-29 0
-53 -4 -53 -10z"/>
</g>
</svg>
